# xmcd
# Track frame offsets:
# 150
# 2436
# 20517
# 33820
# 48014
# 61019
# 74990
# 88347
# 100327
# 115034
# 127365
# 137076
# 150243
#
# Disc length: 2211 seconds
# Revision: 0
# Processed by: cddbd v1.4PL0 Copyright (c) Steve Scherf et al.
# Submitted via: VisiTrax 2.9.5.181 - For more info visit www.synapsa.com
#
DISCID=a608a10d
DTITLE=Don Williams - Ties That Bind:  CD 2
DYEAR=1900
DGENRE=
TTITLE0=Dialogue
TTITLE1=I Believe In You
TTITLE2=The Shelter Of Your Eyes
TTITLE3=Come Early Morning
TTITLE4=Atta Way To Go
TTITLE5=We Should Be Together
TTITLE6=Down The Road I Go
TTITLE7=Miller's Cove
TTITLE8=She's In Love With A Rodeo man
TTITLE9=He's A Friend Of Mine
TTITLE10=Bringing It Down To You
TTITLE11=I Wouldn't Want To Live (If You Didn't Love Me)
TTITLE12=You're My Best Friend (live)
EXTD=
EXTT0=
EXTT1=
EXTT2=
EXTT3=
EXTT4=
EXTT5=
EXTT6=
EXTT7=
EXTT8=
EXTT9=
EXTT10=
EXTT11=
EXTT12=
PLAYORDER=
